<?xml version="1.0" standalone="no"?>
<!DOCTYPE svg PUBLIC "-//W3C//DTD SVG 20010904//EN"
 "http://www.w3.org/TR/2001/REC-SVG-20010904/DTD/svg10.dtd">
<svg version="1.0" xmlns="http://www.w3.org/2000/svg"
 width="66.000000pt" height="66.000000pt" viewBox="0 0 66.000000 66.000000"
 preserveAspectRatio="xMidYMid meet">

<g transform="translate(0.000000,66.000000) scale(0.100000,-0.100000)"
fill="#000000" stroke="none">
<path d="M47 508 c-3 -29 -9 -68 -13 -87 -6 -29 -5 -33 12 -29 13 2 21 14 24
38 5 31 8 35 33 33 16 -1 27 3 27 11 0 9 -9 12 -27 8 -24 -4 -25 -3 -20 19 4
13 7 30 7 37 0 18 48 14 59 -5 9 -16 10 -16 11 5 0 20 -5 22 -54 22 l-53 0 -6
-52z"/>
<path d="M555 522 c-11 -9 -20 -21 -20 -27 -1 -5 -4 -30 -9 -53 -9 -48 0 -67
28 -56 10 4 13 9 8 13 -17 10 6 99 26 104 16 4 16 5 0 6 -11 1 -15 6 -12 16 8
19 4 19 -21 -3z"/>
<path d="M165 500 c-3 -5 -2 -10 4 -10 5 0 13 -25 16 -55 4 -30 11 -55 15 -55
4 0 15 10 26 22 10 12 14 18 7 15 -7 -5 -13 9 -18 43 -5 39 -11 50 -25 50 -11
0 -22 -4 -25 -10z"/>
<path d="M254 484 c4 -14 3 -31 -1 -38 -4 -7 0 -3 10 7 22 24 22 57 1 57 -12
0 -15 -6 -10 -26z"/>
<path d="M302 487 c-54 -57 -5 -139 54 -91 16 13 16 15 2 10 -45 -14 -65 36
-32 82 20 29 3 28 -24 -1z"/>
<path d="M360 488 c0 -9 -10 -24 -22 -32 -12 -9 -17 -16 -11 -16 6 0 26 12 44
27 l32 28 -5 -25 c-19 -82 -20 -90 -4 -90 9 0 18 12 22 28 3 15 10 40 15 56
13 43 13 44 -31 42 -31 0 -40 -5 -40 -18z"/>
<path d="M454 499 c-5 -8 -3 -9 6 -4 10 6 12 0 6 -31 -12 -74 -12 -79 8 -79
14 0 19 9 22 40 2 22 5 49 6 60 3 23 -35 34 -48 14z"/>
<path d="M130 405 c-7 -9 -8 -15 -2 -15 5 0 12 7 16 15 3 8 4 15 2 15 -2 0 -9
-7 -16 -15z"/>
<path d="M570 365 c-19 -23 -8 -50 22 -53 34 -4 50 34 22 55 -23 17 -29 16
-44 -2z"/>
<path d="M10 330 c0 -27 3 -30 30 -30 l30 0 0 -80 0 -80 40 0 40 0 0 80 0 80
30 0 30 0 0 -80 0 -80 30 0 c27 0 30 3 30 33 0 41 13 62 34 54 11 -4 16 -19
16 -47 0 -38 2 -40 30 -40 23 0 30 4 30 20 0 18 2 18 24 -4 19 -20 32 -24 82
-22 l59 1 0 75 0 75 -59 1 c-49 2 -63 -2 -81 -20 l-22 -22 -22 24 c-18 20 -27
23 -56 18 l-35 -7 0 41 0 40 -130 0 -130 0 0 -30z m470 -120 c0 -11 -7 -20
-15 -20 -8 0 -15 9 -15 20 0 11 7 20 15 20 8 0 15 -9 15 -20z"/>
<path d="M560 216 l0 -76 35 0 36 0 -3 73 -3 72 -32 3 -33 3 0 -75z"/>
</g>
</svg>
